<svg width="20" height="20" viewBox="0 0 20 20" fill="#FF2E43" xmlns="http://www.w3.org/2000/svg">
<path fill-rule="evenodd" clip-rule="evenodd" d="M10 0C15.5228 0 20 4.47715 20 10C20 15.5228 15.5228 20 10 20C4.47715 20 0 15.5228 0 10C0 4.47715 4.47715 0 10 0ZM10 2C5.58172 2 2 5.58172 2 10C2 14.4183 5.58172 18 10 18C14.4183 18 18 14.4183 18 10C18 5.58172 14.4183 2 10 2ZM10.0019 13.1065C10.4146 13.1065 10.7651 13.2478 11.0534 13.5304C11.3418 13.8131 11.486 14.154 11.486 14.5533C11.486 14.9525 11.3418 15.2935 11.0534 15.5761C10.7651 15.8587 10.4146 16 10.0019 16C9.59445 16 9.24656 15.8587 8.9582 15.5761C8.66984 15.2935 8.52566 14.9525 8.52566 14.5533C8.52566 14.154 8.66984 13.8131 8.9582 13.5304C9.24656 13.2478 9.59445 13.1065 10.0019 13.1065ZM9.99206 4C10.246 4 10.4934 4.06871 10.7341 4.20612C10.9749 4.34353 11.1627 4.52891 11.2976 4.76226C11.4325 4.9956 11.5 5.24191 11.5 5.50118C11.5 5.70341 11.4735 5.96268 11.4206 6.27899C11.1614 7.78276 10.9868 8.92873 10.8968 9.71692C10.846 10.1898 10.8122 10.7142 10.7952 11.29L10.7857 11.7315H9.24603C9.16843 10.5907 9.10417 9.80062 9.05324 9.36134L9.03968 9.25023L8.54762 6.10009C8.51587 5.84601 8.5 5.64118 8.5 5.48562C8.5 5.22635 8.56746 4.98134 8.70238 4.75059C8.8373 4.51984 9.02249 4.33705 9.25794 4.20223C9.49339 4.06741 9.73809 4 9.99206 4Z" fill="inherit"/>
</svg>
