<svg width="20" height="20" viewBox="0 0 20 20" fill="none" xmlns="http://www.w3.org/2000/svg">
<path fill-rule="evenodd" clip-rule="evenodd" d="M14 0C14.5523 0 15 0.447715 15 1V2H18C19 2 20 3 20 4V18C20 19 19 20 18 20H2C1 20 0 19 0 18V4C0 3 1 2 2 2H5V1C5 0.447715 5.44772 0 6 0C6.55228 0 7 0.447715 7 1V2H13V1C13 0.447715 13.4477 0 14 0ZM18 10H2V18H18V10ZM5 4H2V8H18V4H15V5C15 5.55228 14.5523 6 14 6C13.4477 6 13 5.55228 13 5V4H7V5C7 5.55228 6.55228 6 6 6C5.44772 6 5 5.55228 5 5V4Z" fill="#767F88"/>
</svg>
