<svg width="18" height="18" viewBox="0 0 18 18" fill="none" xmlns="http://www.w3.org/2000/svg">
<path fill-rule="evenodd" clip-rule="evenodd" d="M1.49996 6.49935C1.03972 6.49935 0.666626 6.12625 0.666626 5.66602C0.666626 5.20578 1.03972 4.83268 1.49996 4.83268H16.5C16.9602 4.83268 17.3333 5.20578 17.3333 5.66602C17.3333 6.12625 16.9602 6.49935 16.5 6.49935H14.8333V16.4993C14.8333 16.9267 14.5116 17.2789 14.0971 17.3271L14 17.3327H3.99996C3.5726 17.3327 3.22037 17.011 3.17223 16.5965L3.16663 16.4993V6.49935H1.49996ZM4.83329 6.49935V15.666H13.1666V6.49935H4.83329ZM10.6666 0.666016C12.0469 0.666016 13.1666 1.78577 13.1666 3.16602V3.99935H11.5V3.16602C11.5 2.70625 11.1264 2.33268 10.6666 2.33268H7.33329C6.87354 2.33268 6.49996 2.70625 6.49996 3.16602V3.99935H4.83329V3.16602C4.83329 1.78577 5.95304 0.666016 7.33329 0.666016H10.6666Z" fill="#767F88"/>
</svg>
