<svg width="20" height="20" viewBox="0 0 20 20" fill="none" xmlns="http://www.w3.org/2000/svg">
<path d="M10 0C15.5228 0 20 4.47715 20 10C20 15.5228 15.5228 20 10 20C4.47715 20 0 15.5228 0 10C0 4.47715 4.47715 0 10 0ZM14.3983 6.10898C14.258 5.96832 14.0252 5.96314 13.8783 6.0974L8.5 11.0909L5.97344 10.2171C5.86011 10.1845 5.73733 10.2062 5.64355 10.2752C5.48256 10.3938 5.45245 10.6149 5.57628 10.769L7.95137 13.7251C7.99598 13.7806 8.049 13.8295 8.10867 13.87C8.43994 14.0951 8.89905 14.0205 9.13414 13.7033L14.4321 6.55586C14.5341 6.41835 14.5199 6.23095 14.3983 6.10898Z" fill="#17A131"/>
</svg>
