<svg width="18" height="18" viewBox="0 0 18 18" fill="#2D4B7F" xmlns="http://www.w3.org/2000/svg">
<path fill-rule="evenodd" clip-rule="evenodd" d="M8.99996 0.666626C13.6023 0.666626 17.3333 4.39759 17.3333 8.99996C17.3333 13.6023 13.6023 17.3333 8.99996 17.3333C4.39759 17.3333 0.666626 13.6023 0.666626 8.99996C0.666626 4.39759 4.39759 0.666626 8.99996 0.666626ZM7.01071 5.84138C6.6838 5.58719 6.21111 5.6103 5.9107 5.9107C5.58527 6.23614 5.58527 6.76378 5.9107 7.08922L7.82079 8.99996L5.9107 10.9107L5.84138 10.9892C5.58719 11.3161 5.6103 11.7888 5.9107 12.0892C6.23614 12.4147 6.76378 12.4147 7.08922 12.0892L8.99996 10.1791L10.9107 12.0892L10.9892 12.1585C11.3161 12.4127 11.7888 12.3896 12.0892 12.0892C12.4147 11.7638 12.4147 11.2361 12.0892 10.9107L10.1791 8.99996L12.0892 7.08922L12.1585 7.01071C12.4127 6.6838 12.3896 6.21111 12.0892 5.9107C11.7638 5.58527 11.2361 5.58527 10.9107 5.9107L8.99996 7.82079L7.08922 5.9107L7.01071 5.84138Z" fill="inherit"/>
</svg>
