<svg width="16" height="16" viewBox="0 0 16 16" fill="none" xmlns="http://www.w3.org/2000/svg">
<path fill-rule="evenodd" clip-rule="evenodd" d="M1.61291 0.209705L1.70712 0.292893L8 6.585L14.2929 0.292893C14.6834 -0.0976308 15.3166 -0.0976308 15.7071 0.292893C16.0676 0.653377 16.0953 1.22061 15.7903 1.6129L15.7071 1.70711L9.414 8L15.7071 14.2929C16.0976 14.6834 16.0976 15.3166 15.7071 15.7071C15.3466 16.0676 14.7794 16.0953 14.3871 15.7903L14.2929 15.7071L8 9.414L1.70711 15.7071C1.31658 16.0976 0.683418 16.0976 0.292893 15.7071C-0.0675905 15.3466 -0.0953204 14.7794 0.209704 14.3871L0.292893 14.2929L6.585 8L0.292903 1.70711C-0.0976212 1.31658 -0.097621 0.683417 0.292903 0.292893C0.623347 -0.0375505 1.12752 -0.0883879 1.51141 0.140381L1.61291 0.209705Z" fill="#767F88"/>
</svg>
