<svg width="18" height="18" viewBox="0 0 18 18" fill="none" xmlns="http://www.w3.org/2000/svg">
<path fill-rule="evenodd" clip-rule="evenodd" d="M17.3333 6.15492L11.8452 0.666748H3.16666C1.78642 0.666748 0.666656 1.78651 0.666656 3.16675V14.8334C0.666656 16.2137 1.78642 17.3334 3.16666 17.3334H14.8333C16.2136 17.3334 17.3333 16.2137 17.3333 14.8334V6.15492ZM3.16666 2.33341H11.0833L15.6667 6.91675V14.8334C15.6667 15.2932 15.2931 15.6667 14.8333 15.6667H3.16666C2.70689 15.6667 2.33332 15.2932 2.33332 14.8334V3.16675C2.33332 2.70698 2.70689 2.33341 3.16666 2.33341ZM12.6652 5.75757C12.7665 5.85921 12.7784 6.01537 12.6934 6.12996L8.27844 12.0862C8.08254 12.3505 7.69994 12.4127 7.42388 12.2251C7.37416 12.1913 7.32997 12.1506 7.2928 12.1043L5.31356 9.64091C5.21036 9.51247 5.23546 9.32825 5.36961 9.22945C5.44777 9.17189 5.55008 9.15385 5.64452 9.18098L7.74999 9.90917L12.2319 5.74792C12.3544 5.63603 12.5483 5.64035 12.6652 5.75757Z" fill="#D7DCE1"/>
</svg>
