<svg xmlns="http://www.w3.org/2000/svg" width="24" height="24" viewBox="0 0 384 512" fill="#008000">
<path d="M320 480H64C46.3 480 32 465.7 32 448V64C32 46.3 46.3 32 64 32H192V144C192 170.5 213.5 192 240 192H352V448C352 465.7 337.7 480 320 480ZM240 160C231.2 160 224 152.8 224 144V32.5C226.8 33.2 229.4 34.6 231.4 36.7L347.3 152.6C349.4 154.7 350.8 157.2 351.5 160H240ZM64 0C28.7 0 0 28.7 0 64V448C0 483.3 28.7 512 64 512H320C355.3 512 384 483.3 384 448V163.9C384 151.2 378.9 139 369.9 130L254.1 14.1C245.1 5.1 232.9 0 220.2 0H64ZM64 80C64 88.8 71.2 96 80 96H144C152.8 96 160 88.8 160 80C160 71.2 152.8 64 144 64H80C71.2 64 64 71.2 64 80ZM64 144C64 152.8 71.2 160 80 160H144C152.8 160 160 152.8 160 144C160 135.2 152.8 128 144 128H80C71.2 128 64 135.2 64 144ZM224 432C224 440.8 231.2 448 240 448H304C312.8 448 320 440.8 320 432C320 423.2 312.8 416 304 416H240C231.2 416 224 423.2 224 432ZM288 336H96V272H288V336ZM96 240C78.3 240 64 254.3 64 272V336C64 353.7 78.3 368 96 368H288C305.7 368 320 353.7 320 336V272C320 254.3 305.7 240 288 240H96Z" fill="inherit"/>
</svg>
