<svg width="24" height="22" viewBox="0 0 24 22" fill="none" xmlns="http://www.w3.org/2000/svg">
<path d="M2 4C0.8954 4 0 4.9 0 6V20C0 21.1 0.89543 22 2 22H22C23.105 22 24 21.1 24 20V6C24 4.9 23.105 4 22 4H2Z" fill="#2980B9"/>
<path d="M3 0C1.8954 0 1 0.9 1 2V16C1 17.1 1.8954 18 3 18H14H19H21C22.105 18 23 17.1 23 16V7V4C23 2.9 22.105 2 21 2H19H14H13L10 0H3Z" fill="#2980B9"/>
<path d="M23 13V5C23 3.9 22.105 3 21 3H10H5H3C1.8954 3 1 3.9 1 5V13H23Z" fill="#BDC3C7"/>
<path d="M2 4C0.8954 4 0 4.9 0 6V12V13V19C0 20.1 0.89543 21 2 21H22C23.105 21 24 20.1 24 19V13V12V6C24 4.9 23.105 4 22 4H2Z" fill="#3498DB"/>
</svg>
