<svg width="28" height="28" viewBox="0 0 28 28" fill="#767F88" xmlns="http://www.w3.org/2000/svg">
<path fill-rule="evenodd" clip-rule="evenodd" d="M23.4274 4.57113C27.4585 8.60335 28.3199 14.4061 25.86 19.4512L25.7358 19.6965L27.2993 25.9515C27.4994 26.7515 26.793 27.4671 26.0107 27.3121L25.8928 27.2823L20.7938 25.7028L20.6113 25.8026C15.5687 28.4294 8.99909 27.6145 4.8297 23.677L4.57226 23.4268C-0.634764 18.2199 -0.634764 9.77794 4.57226 4.57102L4.83523 4.31507C10.0587 -0.63333 18.3069 -0.548013 23.4274 4.57113ZM6.96987 5.97474L6.69518 6.22601L6.45786 6.45666C2.38089 10.5335 2.29414 17.0894 6.1723 21.2468L6.43085 21.5145L6.66064 21.7382C9.87334 24.7723 14.9964 25.5209 18.9836 23.6358L19.3324 23.4626L20.505 22.8217L24.0417 23.916L22.9077 19.3788L23.4631 18.2825C25.3931 14.3241 24.7652 9.90866 21.816 6.74099L21.542 6.45699C17.5425 2.45856 11.1405 2.29132 6.96987 5.97474ZM14.0003 18.8335C14.7061 18.8335 15.2781 19.4056 15.2781 20.1112V20.6668C15.2781 21.3725 14.7061 21.9446 14.0003 21.9446C13.2947 21.9446 12.7225 21.3725 12.7225 20.6668V20.1112C12.7225 19.4056 13.2947 18.8335 14.0003 18.8335ZM14.0003 6.7778C16.3317 6.7778 18.0981 8.75813 18.0981 11.1322C18.0981 12.6068 17.4185 13.6977 16.0048 14.9029L15.7107 15.1509L15.4991 15.3371C15.2441 15.5764 15.1678 15.7392 15.1054 16.3375C15.0419 16.9478 14.4955 17.391 13.8851 17.3274C13.2748 17.2638 12.8315 16.7175 12.8952 16.107C13.0112 14.994 13.3205 14.3339 13.9788 13.7165C14.0651 13.6355 14.1549 13.5566 14.2737 13.4559L14.5639 13.2111C15.5302 12.3874 15.8759 11.8325 15.8759 11.1322C15.8759 9.93247 15.0442 9.00002 14.0003 9.00002C12.7003 9.00002 11.7781 9.71458 11.7781 10.6667L11.7707 10.7962C11.7064 11.3489 11.2368 11.7778 10.667 11.7778C10.0533 11.7778 9.55588 11.2804 9.55588 10.6667C9.55588 8.34535 11.5792 6.7778 14.0003 6.7778Z" fill="inherit"/>
</svg>
