<svg width="24" height="24" viewBox="4 2 16 20" fill="none" xmlns="http://www.w3.org/2000/svg">
<path d="M5 20V4C5 3.44772 5.44772 3 6 3H14.1716C14.4368 3 14.6911 3.10536 14.8787 3.29289L18.7071 7.12132C18.8946 7.30886 19 7.56321 19 7.82843V20C19 20.5523 18.5523 21 18 21H6C5.44772 21 5 20.5523 5 20Z" stroke="#F25700" stroke-width="2"/>
<path d="M14 4V6C14 7.10457 14.8954 8 16 8H18" stroke="#F25700" stroke-width="2"/>
<path d="M5 18.5L8.41059 15.9421C8.7611 15.6792 9.24192 15.6751 9.59686 15.9319L11.6805 17.4398C12.1136 17.7532 12.7166 17.6706 13.0494 17.2522L15.0339 14.7573C15.3698 14.3351 15.98 14.2554 16.4131 14.5773L19 16.5" stroke="#F25700" stroke-width="2"/>
<circle cx="11.5" cy="11.5" r="1.5" fill="#F25700"/>
</svg>
