<svg width="20" height="20" viewBox="0.67 0.67 16.67 16.67" fill="#17A131" xmlns="http://www.w3.org/2000/svg">
<path fill-rule="evenodd" clip-rule="evenodd" d="M8.99984 0.666748C13.6022 0.666748 17.3332 4.39771 17.3332 9.00008C17.3332 13.6025 13.6022 17.3334 8.99984 17.3334C4.39746 17.3334 0.666504 13.6025 0.666504 9.00008C0.666504 4.39771 4.39746 0.666748 8.99984 0.666748ZM8.99984 2.33341C5.31794 2.33341 2.33317 5.31818 2.33317 9.00008C2.33317 12.682 5.31794 15.6667 8.99984 15.6667C12.6817 15.6667 15.6665 12.682 15.6665 9.00008C15.6665 5.31818 12.6817 2.33341 8.99984 2.33341ZM9.28296 6.91675C9.59729 6.91675 9.84735 6.99387 10.0347 7.14706C10.2221 7.30025 10.3159 7.49365 10.3159 7.72733C10.3159 7.88312 10.274 8.0797 10.1893 8.31857L9.5342 10.2538L8.9293 12.0564C8.85071 12.3109 8.81141 12.4798 8.81141 12.5629C8.81141 12.6045 8.83287 12.646 8.87519 12.6875C8.9175 12.7291 8.96211 12.7494 9.01047 12.7494C9.09509 12.7494 9.17732 12.718 9.25591 12.6556C9.47956 12.4999 9.74216 12.2202 10.0444 11.8151L10.2985 11.9398C9.56106 13.0407 8.77761 13.5908 7.94947 13.5908C7.63514 13.5908 7.38508 13.5137 7.1977 13.3605C7.01031 13.2073 6.9165 13.0139 6.9165 12.7803C6.9165 12.6245 6.95846 12.4279 7.04309 12.189L7.69824 10.2538L8.30314 8.45117C8.38173 8.19672 8.42103 8.02777 8.42103 7.94468C8.42103 7.90314 8.39957 7.8616 8.35725 7.82006C8.31494 7.77851 8.27033 7.75824 8.22197 7.75824C8.13735 7.75824 8.05511 7.78964 7.97653 7.85196C7.75287 8.00774 7.49028 8.28741 7.18803 8.69245L6.9339 8.56782C7.67137 7.46694 8.45482 6.91675 9.28296 6.91675ZM9.99609 4.41675C10.546 4.41675 10.9914 4.8763 10.9914 5.44369C10.9914 6.01107 10.546 6.47062 9.99609 6.47062C9.4462 6.47062 8.99984 6.01107 8.99984 5.44369C8.99984 4.8763 9.4462 4.41675 9.99609 4.41675Z" fill="inherit"/>
</svg>
