<svg width="20" height="20" viewBox="0 0 20 20" fill="#767F88" xmlns="http://www.w3.org/2000/svg">
<path fill-rule="evenodd" clip-rule="evenodd" d="M9.16675 1.66602C13.3089 1.66602 16.6667 5.02388 16.6667 9.16602C16.6667 10.9321 16.0563 12.5556 15.0349 13.8371L18.3334 17.1371L17.1378 18.3327L13.8387 15.0335C12.5571 16.0553 10.9332 16.666 9.16675 16.666C5.02461 16.666 1.66675 13.3082 1.66675 9.16602C1.66675 5.02388 5.02461 1.66602 9.16675 1.66602ZM9.16675 3.33268C5.94509 3.33268 3.33341 5.94436 3.33341 9.16602C3.33341 12.3877 5.94509 14.9993 9.16675 14.9993C12.3884 14.9993 15.0001 12.3877 15.0001 9.16602C15.0001 5.94436 12.3884 3.33268 9.16675 3.33268Z" fill="inherit"/>
</svg>
