<svg width="25" height="20" viewBox="1 0 26 20" fill="#2D4B7F" xmlns="http://www.w3.org/2000/svg">
<path fill-rule="evenodd" clip-rule="evenodd" d="M24.0001 0.332031C25.8404 0.332031 27.3334 1.82503 27.3334 3.66536V16.9987C27.3334 18.839 25.8404 20.332 24.0001 20.332H4.00008C2.15977 20.332 0.666748 18.839 0.666748 16.9987V3.66536C0.666748 1.82503 2.15977 0.332031 4.00008 0.332031H24.0001ZM24.0001 2.55425H4.00008C3.38706 2.55425 2.88897 3.05236 2.88897 3.66536V4.16659L14.0001 11.2373L25.1112 4.16659V3.66536C25.1112 3.05236 24.6131 2.55425 24.0001 2.55425ZM25.1112 6.80059L14.0001 13.8713L2.88897 6.80059V16.9987C2.88897 17.6117 3.38706 18.1098 4.00008 18.1098H24.0001C24.6131 18.1098 25.1112 17.6117 25.1112 16.9987V6.80059Z" fill="inherit"/>
</svg>
