
<svg width="23" height="23" viewBox="0.6 0.1 21.8 21.8" fill="white" xmlns="http://www.w3.org/2000/svg">
<path fill-rule="evenodd" clip-rule="evenodd" d="M11.5 0.166626C14.0775 0.166626 16.445 1.06746 18.305 2.56996L16.1975 4.12329C14.86 3.20663 13.2417 2.66996 11.5 2.66996C6.90751 2.66996 3.17167 6.40829 3.17167 11.0008C3.17167 15.5941 6.90751 19.33 11.5 19.33C16.0942 19.33 19.8308 15.5941 19.8308 11.0008C19.8308 10.9266 19.8283 10.8516 19.8267 10.7775L22.1592 9.05829C22.2742 9.68746 22.3333 10.3375 22.3333 11.0008C22.3333 16.9841 17.4833 21.8333 11.5 21.8333C5.51751 21.8333 0.666672 16.9841 0.666672 11.0008C0.666672 5.01579 5.51751 0.166626 11.5 0.166626ZM20.0717 4.37663C20.5842 5.03913 21.0217 5.75996 21.3717 6.52996L11.5 13.8058L7.37584 11.2191V8.10746L11.5 10.695L20.0717 4.37663Z" fill="inherit"/>
</svg>
