<svg width="88" height="88" viewBox="0 0 88 88" fill="none" xmlns="http://www.w3.org/2000/svg">
<circle opacity="0.15" cx="44" cy="44" r="44" fill="#DA5003"/>
<circle opacity="0.2" cx="44" cy="44" r="34" fill="#DA5003"/>
<circle cx="44" cy="44" r="24" fill="#DA5003"/>
<g clip-path="url(#clip0_871_19020)">
<path fill-rule="evenodd" clip-rule="evenodd" d="M37.6129 36.2097L37.7071 36.2929L44 42.585L50.2929 36.2929C50.6834 35.9024 51.3166 35.9024 51.7071 36.2929C52.0676 36.6534 52.0953 37.2206 51.7903 37.6129L51.7071 37.7071L45.414 44L51.7071 50.2929C52.0976 50.6834 52.0976 51.3166 51.7071 51.7071C51.3466 52.0676 50.7794 52.0953 50.3871 51.7903L50.2929 51.7071L44 45.414L37.7071 51.7071C37.3166 52.0976 36.6834 52.0976 36.2929 51.7071C35.9324 51.3466 35.9047 50.7794 36.2097 50.3871L36.2929 50.2929L42.585 44L36.2929 37.7071C35.9024 37.3166 35.9024 36.6834 36.2929 36.2929C36.6233 35.9624 37.1275 35.9116 37.5114 36.1404L37.6129 36.2097Z" fill="white"/>
</g>
<defs>
<clipPath id="clip0_871_19020">
<rect width="24" height="24" fill="white" transform="translate(32 32)"/>
</clipPath>
</defs>
</svg>
