<svg width="33" height="32" viewBox="0 0 33 32" fill="none" xmlns="http://www.w3.org/2000/svg">
<path d="M9.5 18C12.2614 18 14.5 20.2386 14.5 23C14.5 25.7614 12.2614 28 9.5 28C8.48089 28 7.533 27.6951 6.74255 27.1716L4.20711 29.7071C3.81658 30.0976 3.18342 30.0976 2.79289 29.7071C2.43241 29.3466 2.40468 28.7794 2.7097 28.3871L2.79289 28.2929L5.32843 25.7574C4.80489 24.967 4.5 24.0191 4.5 23C4.5 20.2386 6.73858 18 9.5 18ZM9.5 20C7.84315 20 6.5 21.3431 6.5 23C6.5 24.6569 7.84315 26 9.5 26C11.1569 26 12.5 24.6569 12.5 23C12.5 21.3431 11.1569 20 9.5 20ZM24.5 20V22H16.5V20H24.5ZM24.5 14V16H10.5V14H24.5ZM23.5 2V4H6.5V16H4.5V3C4.5 2.44772 4.94772 2 5.5 2H23.5ZM30.5 12.5V29C30.5 29.5523 30.0523 30 29.5 30H16.5V28H28.5V13.5L30.5 12.5ZM24.5 8V10H10.5V8H24.5ZM28.5 4H25.5V2H29.5C30.0523 2 30.5 2.44772 30.5 3V10.5L28.5 11.5V4Z" fill="#767F88"/>
<path d="M29.5 2C30.0128 2 30.4355 2.38604 30.4933 2.88338L30.5 3V10.5L28.5 11.5V4H25.5V2H29.5Z" fill="#2D4B7F"/>
</svg>
