<svg width="127" height="16" viewBox="0 0 127 16" fill="#21A049" xmlns="http://www.w3.org/2000/svg">
<path d="M95.707 0.791504V15.3499H98.8474V9.4027H105.545V15.3499H108.685V0.791504H105.545V6.7603H98.8474V0.791504H95.707Z" fill="inherit"/>
<path d="M115.76 9.4783H117.715L122.536 15.3511H126.596L120.169 7.8211L125.785 0.791504H122.174L117.494 7.0315H115.76V0.791504H112.617V15.3511H115.76V9.4783Z" fill="inherit"/>
<path d="M90.3089 15.3499H93.616L87.4828 0.791504H84.2789L77.998 15.3499H81.1804L82.4428 12.4183H89.1196L90.3089 15.3499ZM83.3824 9.9895L85.816 4.1443L88.1033 9.9895H83.3824Z" fill="inherit"/>
<path d="M71.4277 6.4663H67.6045V3.2155H75.8209L75.8281 0.791504H64.4629V15.3499H71.0221C74.7013 15.3499 76.8121 13.6831 76.8121 10.7767C76.8121 7.9975 74.8993 6.4663 71.4277 6.4663ZM70.8805 12.9259H67.6045V8.8903H70.8805C72.8749 8.8903 73.8037 9.5659 73.8037 10.9087C73.8037 12.2803 72.8197 12.9259 70.8805 12.9259Z" fill="inherit"/>
<path d="M39.4645 3.2155L42.7537 0.791504H31.7461V15.3511H42.7537V12.9259H34.8877V9.19869H41.5969V6.7747H34.8877V3.2155H39.4645Z" fill="inherit"/>
<path d="M23.4374 6.4663H19.6143V3.2155H25.7163L29.0054 0.791504H16.4727V15.3511H23.0318C26.711 15.3511 28.8207 13.6831 28.8207 10.7767C28.8207 7.9975 26.909 6.4663 23.4374 6.4663ZM22.8903 12.9259H19.6143V8.8903H22.8903C24.8834 8.8903 25.8123 9.56589 25.8123 10.9087C25.8123 12.2803 24.8294 12.9259 22.8903 12.9259Z" fill="inherit"/>
<path d="M51.6725 0.791504H45.6797V15.3499H48.8201V11.2267H51.6725C55.4969 11.2267 57.8729 9.2155 57.8729 6.0019C57.8729 2.7883 55.4969 0.791504 51.6725 0.791504ZM51.6029 8.8027H48.8201V3.2155H51.6029C53.6165 3.2155 54.7229 4.2079 54.7229 6.0091C54.7229 7.8103 53.6153 8.8027 51.6029 8.8027Z" fill="inherit"/>
<path d="M11.0787 12.1984C10.2462 12.6494 9.31345 12.883 8.3667 12.8776C5.53471 12.8776 3.4791 10.8556 3.4791 8.07044C3.4791 5.28524 5.53471 3.26924 8.3667 3.26924C9.39034 3.25435 10.3918 3.56812 11.2239 4.16444L13.4775 2.50364L13.3287 2.37284C12.0087 1.21725 10.2555 0.606445 8.2455 0.606445C6.0651 0.606445 4.08631 1.34084 2.67391 2.67644C1.26151 4.01204 0.470703 5.90804 0.470703 7.99604C0.470703 10.084 1.25071 12.0112 2.66671 13.396C4.08271 14.7808 6.06031 15.5488 8.22511 15.5488C10.4895 15.5488 12.4671 14.7592 13.8087 13.3228L11.7747 11.824L11.0787 12.1984Z" fill="inherit"/>
</svg>
