<svg width="134" height="22" viewBox="0 0 134 22" fill="none" xmlns="http://www.w3.org/2000/svg">
<path d="M62.3812 6.58498L65.2927 4.38049H55.548V17.6195H65.2927V15.415H58.3292V12.0254H64.2692V9.82175H58.3292V6.58498H62.3812Z" fill="#21A038"/>
<path fill-rule="evenodd" clip-rule="evenodd" d="M44.8084 9.541H48.1926C51.2665 9.541 52.9585 10.9335 52.9543 13.4645C52.9543 16.1078 51.0865 17.623 47.8301 17.623H42.0272V4.38049H53.1225L50.211 6.58498H44.8084V9.541ZM44.8084 15.415H47.7073C49.4255 15.415 50.2959 14.8276 50.2951 13.5837C50.2951 12.3622 49.4735 11.7489 47.7073 11.7489H44.8084V15.415Z" fill="#21A038"/>
<path fill-rule="evenodd" clip-rule="evenodd" d="M67.882 4.38147H73.1895C76.5729 4.38147 78.6779 6.20069 78.6779 9.12302C78.6779 12.0454 76.5745 13.8741 73.1895 13.8741H70.6665V17.6231H67.882V4.38147ZM70.6666 11.6653H73.1299L73.1283 11.6627C74.9103 11.6627 75.8943 10.7643 75.8943 9.12563C75.8943 7.48695 74.9137 6.58512 73.1316 6.58512H70.6666V11.6653Z" fill="#21A038"/>
<path d="M37.2539 14.7525C36.517 15.1629 35.6911 15.3753 34.8528 15.3702C32.3458 15.3702 30.5259 13.5328 30.5259 11.0001C30.5259 8.46731 32.3458 6.62908 34.8528 6.62908C35.759 6.61565 36.6455 6.90051 37.3826 7.44195L39.3816 5.93197L39.2496 5.81363C38.0848 4.76235 36.529 4.20691 34.7494 4.20691C32.8201 4.20691 31.0683 4.87551 29.8178 6.08919C28.5672 7.30287 27.8675 9.02621 27.8675 10.9266C27.8675 12.8271 28.5571 14.5772 29.811 15.8358C31.065 17.0944 32.8117 17.7958 34.7275 17.7958C36.7325 17.7958 38.4834 17.0779 39.6701 15.7718L37.8678 14.4061L37.2539 14.7525Z" fill="#21A038"/>
<path d="M19.1841 4.27417C19.6929 4.94977 20.1235 5.68376 20.4675 6.46138L10.7119 13.848L6.6347 11.2228V8.06465L10.7119 10.6898L19.1841 4.27417Z" fill="#21A038"/>
<path d="M2.47339 11.0001C2.47339 10.8584 2.47339 10.7176 2.48432 10.5776L0.0126187 10.4532C0.00420865 10.6347 3.65082e-06 10.8178 3.65082e-06 11.0026C-0.00234245 13.9193 1.12615 16.7168 3.1361 18.7771L4.88874 16.9777C3.34128 15.3947 2.47201 13.2434 2.47339 11.0001Z" fill="url(#paint0_linear_432_1019)"/>
<path d="M10.7093 2.54052C10.8472 2.54052 10.9843 2.54571 11.1205 2.55262L11.2441 0.013825C11.0664 0.00461083 10.8881 3.74992e-06 10.7093 3.74992e-06C7.86969 -0.00240604 5.14607 1.15671 3.14026 3.22122L4.8929 5.02144C6.4333 3.43283 8.5264 2.54003 10.7093 2.54052Z" fill="url(#paint1_linear_432_1019)"/>
<path d="M10.7093 19.4594C10.5714 19.4594 10.4343 19.4594 10.2981 19.4482L10.1744 21.9861C10.351 21.9953 10.5293 21.9999 10.7093 21.9999C13.5492 22.003 16.2731 20.8434 18.2783 18.7779L16.5265 16.9785C14.9857 18.567 12.8924 19.4598 10.7093 19.4594Z" fill="url(#paint2_linear_432_1019)"/>
<path d="M15.3524 4.01682L17.4314 2.44033C15.5281 0.85733 13.1523 -0.00439423 10.7034 1.68511e-05V2.54054C12.3628 2.53772 13.984 3.05252 15.3524 4.01682Z" fill="url(#paint3_linear_432_1019)"/>
<path d="M21.4187 11.0001C21.42 10.3391 21.3637 9.67942 21.2505 9.02881L18.9453 10.7737C18.9453 10.8489 18.9453 10.924 18.9453 11.0001C18.9462 13.3905 17.9599 15.6691 16.2314 17.2697L17.894 19.1572C20.1412 17.074 21.4223 14.1093 21.4187 11.0001Z" fill="#21A038"/>
<path d="M10.7093 19.4594C8.38224 19.4605 6.16389 18.4477 4.60535 16.6727L2.76776 18.3797C4.79588 20.6878 7.68228 22.0036 10.7093 22V19.4594Z" fill="url(#paint4_linear_432_1019)"/>
<path d="M5.18646 4.73048L3.52464 2.84302C1.27747 4.92619 -0.00356923 7.89093 7.46967e-06 11.0001H2.47339C2.47236 8.60989 3.45836 6.33133 5.18646 4.73048Z" fill="url(#paint5_linear_432_1019)"/>
<path fill-rule="evenodd" clip-rule="evenodd" d="M127.095 4.17741C131.238 4.19642 134 6.74903 134 11.0233C134 15.0133 131.294 17.8311 127.095 17.8311C122.953 17.8311 120.192 15.2785 120.192 10.9852C120.189 6.9909 122.893 4.1731 127.093 4.1731L127.095 4.17741ZM95.7512 17.6185L90.4529 4.38121L87.8374 4.38553L82.6089 17.6228H84.9477L86.1587 14.4794H92.0693L93.303 17.6185H95.7512ZM91.2266 12.3052H86.9914L89.109 6.87686L91.2266 12.3052ZM97.5788 17.6228V4.38121H103.176C106.048 4.38121 107.521 5.47741 107.521 7.67153C107.521 9.18409 106.932 10.187 105.606 10.7165C107.19 10.9999 107.908 12.0399 107.908 13.7607C107.908 16.5033 105.993 17.6185 102.862 17.6185L97.5788 17.6228ZM105.219 8.18649C105.219 9.32156 104.299 9.98325 102.844 9.98325H99.8797V6.5599H102.9C104.538 6.5599 105.219 7.12743 105.219 8.18649ZM103.012 15.4487C104.778 15.4487 105.59 14.8622 105.59 13.5949C105.59 12.3277 104.667 11.8353 103.045 11.8353H99.878V15.4479L103.012 15.4487ZM115.275 6.55978H119.62L119.616 4.38121H108.697V6.55546H112.969V17.6228H115.275V6.55978ZM131.571 11.0042C131.571 13.784 129.857 15.6567 127.114 15.6567L127.111 15.6524C124.165 15.636 122.619 13.5905 122.621 11.0042C122.621 8.24338 124.318 6.3706 127.079 6.35159C130.025 6.3706 131.571 8.41269 131.571 11.0042Z" fill="#2D4B7F"/>
<defs>
<linearGradient id="paint0_linear_432_1019" x1="5.99419" y1="16.1582" x2="0.662409" y2="10.699" gradientUnits="userSpaceOnUse">
<stop offset="0.14" stop-color="#F2E913"/>
<stop offset="0.3" stop-color="#E7E518"/>
<stop offset="0.58" stop-color="#CADB26"/>
<stop offset="0.89" stop-color="#A3CD39"/>
</linearGradient>
<linearGradient id="paint1_linear_432_1019" x1="6.04252" y1="5.82816" x2="10.8183" y2="0.958759" gradientUnits="userSpaceOnUse">
<stop offset="0.06" stop-color="#0FA8E0"/>
<stop offset="0.54" stop-color="#0099F9"/>
<stop offset="0.92" stop-color="#0291EB"/>
</linearGradient>
<linearGradient id="paint2_linear_432_1019" x1="11.4855" y1="22.9057" x2="18.0604" y2="18.9317" gradientUnits="userSpaceOnUse">
<stop offset="0.12" stop-color="#A3CD39"/>
<stop offset="0.28" stop-color="#86C339"/>
<stop offset="0.87" stop-color="#21A038"/>
</linearGradient>
<linearGradient id="paint3_linear_432_1019" x1="8.40431" y1="2.8603" x2="13.2227" y2="7.14513" gradientUnits="userSpaceOnUse">
<stop offset="0.06" stop-color="#0291EB"/>
<stop offset="0.79" stop-color="#0C8ACB"/>
</linearGradient>
<linearGradient id="paint4_linear_432_1019" x1="1.29196" y1="20.5278" x2="6.92125" y2="25.3302" gradientUnits="userSpaceOnUse">
<stop offset="0.13" stop-color="#F2E913"/>
<stop offset="0.3" stop-color="#EBE716"/>
<stop offset="0.53" stop-color="#D9E01F"/>
<stop offset="0.8" stop-color="#BBD62D"/>
<stop offset="0.98" stop-color="#A3CD39"/>
</linearGradient>
<linearGradient id="paint5_linear_432_1019" x1="3.41911" y1="13.6211" x2="8.69475" y2="7.92401" gradientUnits="userSpaceOnUse">
<stop offset="0.07" stop-color="#A3CD39"/>
<stop offset="0.26" stop-color="#81C55F"/>
<stop offset="0.92" stop-color="#0FA8E0"/>
</linearGradient>
</defs>
</svg>
