<svg width="20" height="20" viewBox="0 0 20 20" fill="none" xmlns="http://www.w3.org/2000/svg">
<path fill-rule="evenodd" clip-rule="evenodd" d="M4 1C4.51284 1 4.93551 1.38604 4.99327 1.88338L5 2C5 2.55228 5.44772 3 6 3H14C14.5128 3 14.9355 2.61396 14.9933 2.11662L15 2C15 1.44772 15.4477 1 16 1H18C19.1046 1 20 1.89543 20 3V18C20 19.1046 19.1046 20 18 20H2C0.89543 20 0 19.1046 0 18V3C0 1.89543 0.89543 1 2 1H4ZM3.17 3H2V18H18V3H16.829L16.8251 3.01178C16.4307 4.11286 15.4109 4.91626 14.1938 4.99384L14 5H6C4.76328 5 3.70134 4.25166 3.2423 3.1831L3.17 3ZM15 12V14H5V12H15ZM15 8V10H5V8H15ZM13 0C13.5523 0 14 0.447715 14 1C14 1.55228 13.5523 2 13 2H7C6.44772 2 6 1.55228 6 1C6 0.447715 6.44772 0 7 0H13Z" fill="#767F88"/>
</svg>
