<svg width="18" height="20" viewBox="0 0 18 20" fill="none" xmlns="http://www.w3.org/2000/svg">
<path fill-rule="evenodd" clip-rule="evenodd" d="M17 10C17.5128 10 17.9355 10.386 17.9933 10.8834L18 11V18C18 19.0544 17.1841 19.9182 16.1493 19.9945L16 20H2C0.945638 20 0.0818349 19.1841 0.00548577 18.1493L0 18V11C0 10.4477 0.447715 10 1 10C1.51284 10 1.93551 10.386 1.99327 10.8834L2 11V18H16V11C16 10.4477 16.4477 10 17 10ZM9.6129 0.209705L9.70711 0.292893L13.7071 4.29289C14.0976 4.68342 14.0976 5.31658 13.7071 5.70711C13.3466 6.06759 12.7794 6.09532 12.3871 5.7903L12.2929 5.70711L10 3.415V13C10 13.5523 9.55228 14 9 14C8.44772 14 8 13.5523 8 13V3.413L5.70711 5.70711C5.34662 6.06759 4.77939 6.09532 4.3871 5.7903L4.29289 5.70711C3.93241 5.34662 3.90468 4.77939 4.2097 4.3871L4.29289 4.29289L8.29289 0.292893C8.65338 -0.0675908 9.22061 -0.0953202 9.6129 0.209705Z" fill="#767F88"/>
</svg>
