<svg width="20" height="20" viewBox="0 0 20 20" fill="#17A131" xmlns="http://www.w3.org/2000/svg">
<path fill-rule="evenodd" clip-rule="evenodd" d="M10 0C15.5228 0 20 4.47715 20 10C20 15.5228 15.5228 20 10 20C4.47715 20 0 15.5228 0 10C0 4.47715 4.47715 0 10 0ZM10 2C5.58172 2 2 5.58172 2 10C2 14.4183 5.58172 18 10 18C14.4183 18 18 14.4183 18 10C18 5.58172 14.4183 2 10 2ZM14.3983 6.10898C14.5199 6.23095 14.5341 6.41835 14.4322 6.55586L9.13414 13.7033C8.89906 14.0205 8.43994 14.0951 8.10867 13.87C8.049 13.8295 7.99598 13.7806 7.95137 13.7251L5.57628 10.769C5.45245 10.6149 5.48256 10.3938 5.64355 10.2752C5.73733 10.2062 5.86011 10.1845 5.97344 10.2171L8.5 11.0909L13.8783 6.0974C14.0252 5.96314 14.258 5.96832 14.3983 6.10898Z" fill="inherit"/>
</svg>
