<svg  width="24" height="24" viewBox="4 2 16 20" fill="none" xmlns="http://www.w3.org/2000/svg">
<path d="M5 20V4C5 3.44772 5.44772 3 6 3H14.1716C14.4368 3 14.6911 3.10536 14.8787 3.29289L18.7071 7.12132C18.8946 7.30886 19 7.56321 19 7.82843V20C19 20.5523 18.5523 21 18 21H6C5.44772 21 5 20.5523 5 20Z" stroke="#17A131" stroke-width="2"/>
<path d="M14 4V6C14 7.10457 14.8954 8 16 8H18" stroke="#17A131" stroke-width="2"/>
<rect x="11" y="10" width="2" height="2" fill="#17A131"/>
<rect x="11" y="13" width="2" height="2" fill="#17A131"/>
<rect x="11" y="16" width="2" height="2" fill="#17A131"/>
<rect x="14" y="10" width="2" height="2" fill="#17A131"/>
<rect x="14" y="13" width="2" height="2" fill="#17A131"/>
<rect x="14" y="16" width="2" height="2" fill="#17A131"/>
<rect x="8" y="10" width="2" height="2" fill="#17A131"/>
<rect x="8" y="13" width="2" height="2" fill="#17A131"/>
<rect x="8" y="16" width="2" height="2" fill="#17A131"/>
</svg>
