<svg viewBox="0 0 181 24" fill="none" xmlns="http://www.w3.org/2000/svg">
<path d="M21.4812 4.66309C22.0508 5.4001 22.5331 6.2008 22.9182 7.04912L11.9944 15.1072L7.42896 12.2434V8.79812L11.9944 11.6619L21.4812 4.66309Z" fill="#21A038"/>
<path d="M2.76957 11.9998C2.76957 11.8453 2.76957 11.6917 2.78182 11.539L0.0141306 11.4033C0.00471349 11.6012 4.08244e-06 11.801 4.08244e-06 12.0027C-0.00129664 13.578 0.308236 15.1382 0.910847 16.5936C1.51346 18.049 2.39729 19.371 3.51164 20.4838L5.47416 18.5209C4.61624 17.6659 3.93565 16.6496 3.47151 15.5305C3.00736 14.4114 2.76881 13.2115 2.76957 11.9998Z" fill="url(#paint0_linear_491_4260)"/>
<path d="M11.9917 2.77146C12.1462 2.77146 12.2997 2.77711 12.4522 2.78465L12.5907 0.015082C12.3917 0.0050303 12.192 4.0852e-06 11.9917 4.0852e-06C10.4174 -0.00129752 8.85836 0.308447 7.40395 0.911468C5.94954 1.51449 4.62841 2.39892 3.51636 3.51403L5.47888 5.47789C6.33289 4.61983 7.34787 3.93904 8.46554 3.47459C9.5832 3.01014 10.7815 2.77119 11.9917 2.77146Z" fill="url(#paint1_linear_491_4260)"/>
<path d="M11.9918 21.2284C11.8373 21.2284 11.6838 21.2284 11.5313 21.2162L11.3928 23.9848C11.5906 23.9948 11.7902 23.9999 11.9918 23.9999C13.5662 24.0015 15.1254 23.6918 16.5799 23.0886C18.0344 22.4854 19.3554 21.6005 20.4671 20.4849L18.5056 18.522C17.6513 19.38 16.6362 20.0607 15.5183 20.5252C14.4005 20.9896 13.2021 21.2286 11.9918 21.2284Z" fill="url(#paint2_linear_491_4260)"/>
<path d="M17.1914 4.38195L19.5193 2.66216C17.3881 0.935261 14.7278 -0.00479367 11.9856 1.83829e-05V2.77147C13.8438 2.7684 15.6591 3.33 17.1914 4.38195Z" fill="url(#paint3_linear_491_4260)"/>
<path d="M23.9835 12.0001C23.985 11.279 23.922 10.5594 23.7952 9.84961L21.2139 11.7532C21.2139 11.8351 21.2139 11.9171 21.2139 12.0001C21.2145 13.2895 20.9442 14.5647 20.4207 15.7429C19.8972 16.9212 19.1321 17.9762 18.175 18.8396L20.0368 20.8987C21.281 19.775 22.2754 18.4021 22.9553 16.8691C23.6352 15.3361 23.9855 13.6772 23.9835 12.0001Z" fill="#21A038"/>
<path d="M11.9917 21.2285C10.7032 21.2291 9.42894 20.9587 8.2515 20.435C7.07407 19.9114 6.01972 19.146 5.15676 18.1885L3.09912 20.0506C4.22207 21.2956 5.594 22.2906 7.12595 22.971C8.65789 23.6514 10.3156 24.0019 11.9917 24V21.2285Z" fill="url(#paint4_linear_491_4260)"/>
<path d="M5.80753 5.16011L3.94671 3.10107C2.70248 4.22479 1.70817 5.59765 1.02826 7.13064C0.348351 8.66363 -0.00197203 10.3225 8.34964e-06 11.9997H2.76958C2.76901 10.7103 3.03915 9.4352 3.56249 8.25696C4.08583 7.07873 4.85069 6.02366 5.80753 5.16011Z" fill="url(#paint5_linear_491_4260)"/>
<path d="M37.3669 10.825C35.73 10.45 34.3086 10.1347 34.3086 9.04489C34.3086 7.57955 36.1995 7.42216 37.0119 7.42216C38.1413 7.42216 38.7758 7.56761 39.6137 7.93069C40.0197 7.63979 41.8725 6.33183 41.8725 6.33183C40.6416 5.59319 38.8138 5 37.0244 5C32.7603 5 31.2499 7.16762 31.2499 9.19034C31.2499 12.1091 33.9021 12.7142 36.2505 13.2472C37.9004 13.6227 39.3217 13.9494 39.3217 15.0637C39.3217 15.633 38.9663 16.5898 36.5805 16.5898C34.9936 16.5898 33.2552 16.0568 32.0238 15.1972L30.9834 17.4619C32.2398 18.3943 34.4101 19 36.555 19C40.0957 19 42.3805 17.3648 42.3805 14.8335C42.3675 11.9392 39.7152 11.346 37.3669 10.825Z" fill="#21A038"/>
<path d="M56.836 11.7804L56.6781 11.7304L56.823 11.6551C58.0312 11.0289 58.7012 9.95049 58.7012 8.60981C58.7012 6.35361 56.6916 5 53.3289 5H46.3806V19H53.7361C57.401 19 59.4101 17.6588 59.4101 15.215C59.4101 13.5356 58.4648 12.2943 56.836 11.7804ZM49.5461 7.33146H52.9217C55.0499 7.33146 55.4964 8.27112 55.4964 9.03555C55.4964 10.1639 54.6028 10.7402 52.9217 10.7402H49.5461V7.33146ZM49.5461 10.7531H52.9217H49.5461ZM53.4868 16.6562H49.5461V13.0717H53.4868C55.2858 13.0717 56.2052 13.6732 56.2052 14.8639C56.2052 16.067 55.3122 16.6562 53.4868 16.6562Z" fill="#21A038"/>
<path d="M71.1928 7.33361L74.5057 5H63.4099V19H74.5057V16.6669H66.5784V13.0915H73.3487V10.7584H66.5784V7.33361H71.1928Z" fill="#21A038"/>
<path d="M91.0126 18.9877L87.7971 14.4416C89.7 13.6526 90.7893 12.0875 90.7893 10.009C90.7893 6.92817 88.4009 5 84.5429 5H78.5059V18.9877H81.6686V15.0303H84.5429C84.6344 15.0303 84.7264 15.0303 84.805 15.0303L87.6136 19H91.0126V18.9877ZM81.6821 7.34175H84.4902C86.5109 7.34175 87.6265 8.29349 87.6265 10.0213C87.6265 11.7497 86.5109 12.7015 84.4902 12.7015H81.6821V7.34175Z" fill="#21A038"/>
<path d="M109.872 5H98.0125V7.3H102.652V19H105.152V7.3H109.872V5Z" fill="#333F48"/>
<path d="M120.514 10.64H114.074V7.3H121.254V5H111.574V19H121.474V16.7H114.074V12.94H120.514V10.64Z" fill="#333F48"/>
<path d="M131.081 5H128.241L122.561 19H125.101L126.421 15.68H132.841L134.181 19H136.841L131.081 5ZM127.321 13.38L129.621 7.64L131.921 13.38H127.321Z" fill="#333F48"/>
<path d="M151.271 19H153.771V5H150.811L146.211 12.62L141.571 5H138.411V19H140.911V8.58L145.511 15.92H146.771L151.271 8.48V19Z" fill="#333F48"/>
<path fill-rule="evenodd" clip-rule="evenodd" d="M165.269 19H162.771V5H165.269V19ZM176.931 15.48C176.091 16.2934 174.799 16.7 173.053 16.7H170.795V7.29996H173.073C174.845 7.29996 176.141 7.68684 176.961 8.45999C177.78 9.23344 178.19 10.4 178.19 11.96C178.19 13.4934 177.77 14.667 176.931 15.48ZM178.909 6.74004C177.643 5.58001 175.711 5.00005 173.113 5.00005H168.297V18.9999H173.053C174.186 18.9999 175.228 18.86 176.181 18.58C177.134 18.3 177.953 17.8669 178.64 17.28C179.326 16.6935 179.859 15.94 180.239 15.02C180.618 14.1 180.808 13 180.808 11.72C180.808 9.56 180.175 7.89997 178.909 6.74004Z" fill="#363F48"/>
<defs>
<linearGradient id="paint0_linear_491_4260" x1="4.0729" y1="20.138" x2="1.04162" y2="11.3839" gradientUnits="userSpaceOnUse">
<stop offset="0.14" stop-color="#F2E913"/>
<stop offset="0.3" stop-color="#E7E518"/>
<stop offset="0.58" stop-color="#CADB26"/>
<stop offset="0.89" stop-color="#A3CD39"/>
</linearGradient>
<linearGradient id="paint1_linear_491_4260" x1="4.30363" y1="4.00499" x2="12.1004" y2="1.03541" gradientUnits="userSpaceOnUse">
<stop offset="0.06" stop-color="#0FA8E0"/>
<stop offset="0.54" stop-color="#0099F9"/>
<stop offset="0.92" stop-color="#0291EB"/>
</linearGradient>
<linearGradient id="paint2_linear_491_4260" x1="11.2101" y1="22.3272" x2="20.0261" y2="20.3367" gradientUnits="userSpaceOnUse">
<stop offset="0.12" stop-color="#A3CD39"/>
<stop offset="0.28" stop-color="#86C339"/>
<stop offset="0.87" stop-color="#21A038"/>
</linearGradient>
<linearGradient id="paint3_linear_491_4260" x1="11.4121" y1="0.928233" x2="18.9504" y2="3.25295" gradientUnits="userSpaceOnUse">
<stop offset="0.06" stop-color="#0291EB"/>
<stop offset="0.79" stop-color="#0C8ACB"/>
</linearGradient>
<linearGradient id="paint4_linear_491_4260" x1="3.7941" y1="19.7132" x2="11.9996" y2="22.7778" gradientUnits="userSpaceOnUse">
<stop offset="0.13" stop-color="#F2E913"/>
<stop offset="0.3" stop-color="#EBE716"/>
<stop offset="0.53" stop-color="#D9E01F"/>
<stop offset="0.8" stop-color="#BBD62D"/>
<stop offset="0.98" stop-color="#A3CD39"/>
</linearGradient>
<linearGradient id="paint5_linear_491_4260" x1="1.03118" y1="12.3352" x2="4.32919" y2="3.76411" gradientUnits="userSpaceOnUse">
<stop offset="0.07" stop-color="#A3CD39"/>
<stop offset="0.26" stop-color="#81C55F"/>
<stop offset="0.92" stop-color="#0FA8E0"/>
</linearGradient>
</defs>
</svg>
