<svg width="14" height="14" viewBox="0 0 14 14" fill="none" xmlns="http://www.w3.org/2000/svg">
<path d="M7 0C10.866 0 14 3.13401 14 7C14 10.866 10.866 14 7 14C3.13401 14 0 10.866 0 7C0 3.13401 3.13401 0 7 0ZM7.0013 9.17458C6.71611 9.17458 6.47259 9.27349 6.27074 9.47131C6.06889 9.66914 5.96797 9.9078 5.96797 10.1873C5.96797 10.4668 6.06889 10.7054 6.27074 10.9033C6.47259 11.1011 6.71611 11.2 7.0013 11.2C7.29019 11.2 7.53556 11.1011 7.73741 10.9033C7.93926 10.7054 8.04019 10.4668 8.04019 10.1873C8.04019 9.9078 7.93926 9.66914 7.73741 9.47131C7.53556 9.27349 7.29019 9.17458 7.0013 9.17458ZM6.99444 2.8C6.81667 2.8 6.64537 2.84719 6.48056 2.94156C6.31574 3.03594 6.18611 3.16389 6.09167 3.32541C5.99722 3.48694 5.95 3.65844 5.95 3.83993C5.95 3.94883 5.96111 4.0922 5.98333 4.27006L6.32778 6.47516C6.36481 6.76191 6.41296 7.34087 6.47222 8.21202H7.55C7.55741 7.6857 7.58333 7.21564 7.62778 6.80184C7.69074 6.25011 7.81296 5.44793 7.99444 4.39529C8.03148 4.17388 8.05 3.99239 8.05 3.85082C8.05 3.66933 8.00278 3.49692 7.90833 3.33358C7.81389 3.17024 7.68241 3.04047 7.51389 2.94428C7.34537 2.84809 7.17222 2.8 6.99444 2.8Z" fill="#767F88"/>
</svg>
